# Blender 3.3.1
# www.blender.org
mtllib lpS.mtl
o Cylinder
v 0.008067 0.651698 -0.573146
v 0.022832 3.073585 0.004122
v 0.393740 0.651698 -0.432773
v 0.028578 3.073585 0.006214
v 0.598952 0.535252 -0.077335
v 0.031637 3.073585 0.011510
v 0.527683 0.535252 0.326854
v 0.030575 3.073585 0.017533
v 0.213279 0.651698 0.590670
v 0.025889 3.073585 0.021464
v -0.200510 0.613703 0.586951
v 0.019773 3.073585 0.021464
v -0.511548 0.535252 0.326854
v 0.015089 3.073585 0.017533
v -0.582817 0.535252 -0.077335
v 0.014027 3.073585 0.011510
v -0.380971 0.497256 -0.436490
v 0.017085 3.073585 0.006214
v 0.009957 0.865332 -0.499262
v 0.347003 0.865332 -0.376587
v 0.526342 0.865332 -0.065964
v 0.464058 0.865332 0.287264
v 0.189296 0.865332 0.517818
v -0.172747 0.827336 0.514100
v -0.444144 0.865332 0.287264
v -0.506428 0.865332 -0.065964
v -0.330454 0.827336 -0.380305
v 0.020346 2.647239 -0.093066
v 0.090057 2.647239 -0.067693
v 0.127149 2.647239 -0.003447
v 0.114267 2.647239 0.069610
v 0.057438 2.647239 0.117295
v -0.020112 2.609243 0.113577
v -0.073575 2.647239 0.069610
v -0.086457 2.647239 -0.003447
v -0.052730 2.609243 -0.071410
v 0.156767 2.184610 -0.147890
v 0.230790 2.184610 -0.019678
v 0.205082 2.184610 0.126119
v 0.091672 2.184610 0.221281
v -0.059740 2.146614 0.217564
v -0.169785 2.184610 0.126119
v -0.195492 2.184610 -0.019678
v -0.124834 2.146614 -0.151608
v 0.017649 2.184610 -0.198525
v 0.230364 1.674221 -0.236366
v 0.345130 1.674221 -0.037584
v 0.305272 1.674221 0.188462
v 0.129440 1.674221 0.336003
v -0.103459 1.636225 0.332285
v -0.275926 1.674221 0.188461
v -0.315784 1.674221 -0.037584
v -0.204383 1.636225 -0.240083
v 0.014673 1.674221 -0.314871
v 0.295965 1.219276 -0.315231
v 0.447050 1.219275 -0.053546
v 0.394579 1.219276 0.244031
v 0.163104 1.219276 0.438261
v -0.142429 1.181279 0.434543
v -0.370537 1.219276 0.244031
v -0.423008 1.219275 -0.053546
v -0.275290 1.181279 -0.318949
v 0.012021 1.219275 -0.418579
v 0.020736 2.617184 -0.161880
v 0.131240 2.617185 -0.121659
v 0.186672 2.579189 -0.023536
v 0.169617 2.617184 0.095991
v 0.079533 2.617184 0.171580
v -0.041428 2.579189 0.167862
v -0.128146 2.617184 0.095991
v -0.148566 2.617184 -0.019818
v -0.093134 2.579189 -0.125377
v 0.017766 2.153081 -0.280469
v 0.206282 2.153081 -0.211856
v 0.303223 2.115085 -0.041837
v 0.271752 2.153081 0.159447
v 0.118073 2.153081 0.288399
v -0.085906 2.115086 0.284681
v -0.236220 2.153081 0.159447
v -0.271056 2.153081 -0.038119
v -0.174114 2.115085 -0.215573
v 0.014503 1.642984 -0.412113
v 0.289596 1.642984 -0.311987
v 0.432606 1.604988 -0.062177
v 0.385136 1.642984 0.229842
v 0.160877 1.642984 0.418017
v -0.135237 1.604988 0.414299
v -0.356130 1.642984 0.229842
v -0.406965 1.642984 -0.058460
v -0.263956 1.604988 -0.315705
v 0.011571 1.184671 -0.508196
v 0.350185 1.184671 -0.384951
v 0.526993 1.146675 -0.076599
v 0.467785 1.184671 0.281990
v 0.191744 1.184671 0.513617
v -0.171968 1.146675 0.509898
v -0.444644 1.184671 0.281990
v -0.507217 1.184671 -0.072882
v -0.330410 1.146675 -0.388668
v 0.413281 0.829600 -0.460730
v 0.624870 0.791604 -0.092136
v 0.553583 0.829600 0.334959
v 0.224253 0.829600 0.611300
v -0.209021 0.791604 0.607582
v -0.534985 0.829600 0.334959
v -0.609638 0.829600 -0.088418
v -0.398049 0.791604 -0.464448
v 0.009299 0.829600 -0.607768
v 0.459780 0.504453 -0.516681
v 0.697217 0.466457 -0.103316
v 0.616952 0.504452 0.374691
v 0.248021 0.504452 0.684261
v -0.236950 0.466457 0.680543
v -0.602515 0.504452 0.374690
v -0.686145 0.504452 -0.099599
v -0.448708 0.466457 -0.520399
v 0.007218 0.504453 -0.681400
v 0.000000 0.000000 -0.233312
v 0.000000 0.705268 -0.233312
v 0.149970 0.000000 -0.178727
v 0.149970 0.705268 -0.178727
v 0.229767 0.000000 -0.040514
v 0.229767 0.705268 -0.040514
v 0.202054 -0.000000 0.116656
v 0.202054 0.705268 0.116656
v 0.079797 -0.000000 0.219241
v 0.079797 0.705268 0.219241
v -0.079797 -0.000000 0.219241
v -0.079797 0.705268 0.219241
v -0.202054 -0.000000 0.116656
v -0.202054 0.705268 0.116656
v -0.229767 0.000000 -0.040514
v -0.229767 0.705268 -0.040514
v -0.149970 0.000000 -0.178727
v -0.149970 0.705268 -0.178727
v 0.000000 0.348730 -0.168151
v 0.108086 0.348730 -0.128811
v 0.165597 0.348730 -0.029199
v 0.145623 0.348730 0.084076
v 0.057511 0.348730 0.158011
v -0.057511 0.348730 0.158010
v -0.145623 0.348730 0.084076
v -0.165597 0.348730 -0.029199
v -0.108085 0.348730 -0.128811
vn 0.3238 0.3221 -0.8896
vn 0.8730 0.3022 -0.3827
vn 0.9536 0.2971 0.0477
vn 0.6109 0.3112 0.7280
vn -0.1164 0.2965 0.9479
vn -0.5313 0.3015 0.7917
vn -0.9327 0.3210 0.1645
vn -0.0000 1.0000 -0.0000
vn -0.3809 0.3169 -0.8686
vn -0.7898 0.3166 -0.5253
vn 0.0415 -0.9991 0.0024
vn -0.7667 0.4310 -0.4757
vn -0.3356 0.4304 -0.8379
vn -0.8898 0.4285 0.1569
vn -0.5511 0.4230 0.7193
vn -0.0455 0.4187 0.9070
vn 0.5844 0.4163 0.6965
vn 0.9079 0.3960 0.1376
vn 0.8023 0.4025 -0.4408
vn 0.3093 0.4266 -0.8499
vn -0.7838 0.3370 -0.5217
vn -0.3783 0.3367 -0.8623
vn -0.9279 0.3351 0.1636
vn -0.5277 0.3288 0.7832
vn -0.1127 0.3256 0.9388
vn 0.6078 0.3254 0.7244
vn 0.9437 0.3122 0.1093
vn 0.8444 0.3173 -0.4317
vn 0.3224 0.3342 -0.8857
vn 0.3209 0.3458 -0.8817
vn 0.8325 0.3304 -0.4447
vn 0.9366 0.3260 0.1283
vn 0.6047 0.3390 0.7207
vn -0.0735 0.3409 0.9372
vn -0.5534 0.3441 0.7585
vn -0.9230 0.3487 0.1627
vn -0.3579 0.3490 -0.8661
vn -0.7906 0.3500 -0.5024
vn -0.7957 0.3507 -0.4939
vn -0.3486 0.3496 -0.8696
vn -0.9228 0.3491 0.1627
vn -0.5664 0.3446 0.7487
vn -0.0551 0.3408 0.9385
vn 0.6048 0.3385 0.7208
vn 0.9359 0.3243 0.1375
vn 0.8290 0.3293 -0.4520
vn 0.3209 0.3461 -0.8816
vn 0.3114 0.4133 -0.8557
vn 0.8077 0.3910 -0.4412
vn 0.9129 0.3849 0.1357
vn 0.5881 0.4035 0.7009
vn -0.0509 0.4056 0.9126
vn -0.5513 0.4096 0.7268
vn -0.8960 0.4150 0.1580
vn -0.3404 0.4168 -0.8429
vn -0.7708 0.4174 -0.4812
vn 0.1824 -0.8628 0.4715
vn 0.4346 -0.8567 0.2778
vn 0.4511 -0.8889 -0.0795
vn 0.0338 -0.8164 -0.5765
vn 0.3326 -0.8240 -0.4586
vn -0.3049 -0.8804 -0.3633
vn -0.6502 -0.7582 0.0485
vn -0.6189 -0.7661 0.1734
vn -0.1439 -0.9072 0.3954
vn -0.1295 -0.9255 0.3559
vn -0.5359 -0.8196 0.2028
vn -0.5873 -0.8093 -0.0082
vn -0.2691 -0.9081 -0.3207
vn 0.1984 -0.8870 -0.4170
vn 0.1156 -0.8858 -0.4495
vn 0.3987 -0.9144 -0.0703
vn 0.3033 -0.9077 0.2901
vn 0.2297 -0.9090 0.3477
vn 0.2137 -0.9379 0.2733
vn 0.2322 -0.9377 0.2586
vn 0.3356 -0.9401 -0.0592
vn 0.1208 -0.9255 -0.3590
vn 0.1379 -0.9257 -0.3523
vn -0.2263 -0.9360 -0.2697
vn -0.5129 -0.8581 -0.0235
vn -0.4618 -0.8659 0.1920
vn -0.1107 -0.9462 0.3041
vn -0.1302 -0.9247 0.3577
vn -0.5031 -0.8320 0.2339
vn -0.5695 -0.8205 -0.0494
vn -0.2660 -0.9104 -0.3170
vn 0.1072 -0.9038 -0.4144
vn 0.1839 -0.9047 -0.3844
vn 0.3927 -0.9170 -0.0692
vn 0.2232 -0.9201 0.3218
vn 0.2799 -0.9193 0.2765
vn 0.2434 -0.9398 0.2401
vn 0.1938 -0.9402 0.2801
vn 0.3381 -0.9392 -0.0596
vn 0.1572 -0.9309 -0.3297
vn 0.0922 -0.9303 -0.3550
vn -0.2282 -0.9348 -0.2720
vn -0.4989 -0.8656 -0.0432
vn -0.4422 -0.8730 0.2057
vn -0.1133 -0.9435 0.3114
vn -0.2817 -0.5673 0.7738
vn -0.6966 -0.6658 0.2673
vn -0.4648 -0.8844 -0.0418
vn -0.5116 -0.7239 -0.4627
vn 0.0523 -0.5359 -0.8427
vn 0.4635 -0.7303 -0.5019
vn 0.2956 -0.9539 -0.0521
vn 0.3663 -0.7441 0.5587
vn 0.2118 -0.9540 0.2122
vn 0.3371 -0.1693 -0.9261
vn 0.8535 -0.1693 -0.4928
vn 0.9706 -0.1693 0.1711
vn 0.6335 -0.1693 0.7550
vn -0.0000 -0.1693 0.9856
vn -0.6335 -0.1693 0.7550
vn -0.9706 -0.1693 0.1711
vn -0.3371 -0.1693 -0.9261
vn -0.8535 -0.1693 -0.4928
vn -0.0000 -1.0000 -0.0000
vn -0.8530 0.1729 -0.4925
vn -0.3369 0.1729 -0.9255
vn -0.9700 0.1729 0.1710
vn -0.6331 0.1729 0.7545
vn -0.0000 0.1729 0.9849
vn 0.6331 0.1729 0.7545
vn 0.9700 0.1729 0.1710
vn 0.8530 0.1729 -0.4925
vn 0.3369 0.1729 -0.9255
s 0
usemtl Leaves
f 64//1 2//1 4//1 65//1
f 65//2 4//2 6//2 66//2
f 66//3 6//3 8//3 67//3
f 67//4 8//4 10//4 68//4
f 68//5 10//5 12//5 69//5
f 69//6 12//6 14//6 70//6
f 70//7 14//7 16//7 71//7
f 4//8 2//8 18//8 16//8 14//8 12//8 10//8 8//8 6//8
f 72//9 18//9 2//9 64//9
f 71//10 16//10 18//10 72//10
f 1//11 3//11 5//11 7//11 9//11 11//11 13//11 15//11 17//11
f 115//12 26//12 27//12 116//12
f 116//13 27//13 19//13 117//13
f 114//14 25//14 26//14 115//14
f 113//15 24//15 25//15 114//15
f 112//16 23//16 24//16 113//16
f 111//17 22//17 23//17 112//17
f 110//18 21//18 22//18 111//18
f 109//19 20//19 21//19 110//19
f 117//20 19//20 20//20 109//20
f 80//21 35//21 36//21 81//21
f 81//22 36//22 28//22 73//22
f 79//23 34//23 35//23 80//23
f 78//24 33//24 34//24 79//24
f 77//25 32//25 33//25 78//25
f 76//26 31//26 32//26 77//26
f 75//27 30//27 31//27 76//27
f 74//28 29//28 30//28 75//28
f 73//29 28//29 29//29 74//29
f 82//30 45//30 37//30 83//30
f 83//31 37//31 38//31 84//31
f 84//32 38//32 39//32 85//32
f 85//33 39//33 40//33 86//33
f 86//34 40//34 41//34 87//34
f 87//35 41//35 42//35 88//35
f 88//36 42//36 43//36 89//36
f 90//37 44//37 45//37 82//37
f 89//38 43//38 44//38 90//38
f 98//39 52//39 53//39 99//39
f 99//40 53//40 54//40 91//40
f 97//41 51//41 52//41 98//41
f 96//42 50//42 51//42 97//42
f 95//43 49//43 50//43 96//43
f 94//44 48//44 49//44 95//44
f 93//45 47//45 48//45 94//45
f 92//46 46//46 47//46 93//46
f 91//47 54//47 46//47 92//47
f 108//48 63//48 55//48 100//48
f 100//49 55//49 56//49 101//49
f 101//50 56//50 57//50 102//50
f 102//51 57//51 58//51 103//51
f 103//52 58//52 59//52 104//52
f 104//53 59//53 60//53 105//53
f 105//54 60//54 61//54 106//54
f 107//55 62//55 63//55 108//55
f 106//56 61//56 62//56 107//56
f 35//57 71//57 72//57 36//57
f 36//58 72//58 64//58 28//58
f 34//59 70//59 71//59 35//59
f 33//60 69//60 70//60 34//60
f 32//61 68//61 69//61 33//61
f 31//62 67//62 68//62 32//62
f 30//63 66//63 67//63 31//63
f 29//64 65//64 66//64 30//64
f 28//65 64//65 65//65 29//65
f 45//66 73//66 74//66 37//66
f 37//67 74//67 75//67 38//67
f 38//68 75//68 76//68 39//68
f 39//69 76//69 77//69 40//69
f 40//70 77//70 78//70 41//70
f 41//71 78//71 79//71 42//71
f 42//72 79//72 80//72 43//72
f 44//73 81//73 73//73 45//73
f 43//74 80//74 81//74 44//74
f 52//75 89//75 90//75 53//75
f 53//76 90//76 82//76 54//76
f 51//77 88//77 89//77 52//77
f 50//78 87//78 88//78 51//78
f 49//79 86//79 87//79 50//79
f 48//80 85//80 86//80 49//80
f 47//81 84//81 85//81 48//81
f 46//82 83//82 84//82 47//82
f 54//83 82//83 83//83 46//83
f 63//84 91//84 92//84 55//84
f 55//85 92//85 93//85 56//85
f 56//86 93//86 94//86 57//86
f 57//87 94//87 95//87 58//87
f 58//88 95//88 96//88 59//88
f 59//89 96//89 97//89 60//89
f 60//90 97//90 98//90 61//90
f 62//91 99//91 91//91 63//91
f 61//92 98//92 99//92 62//92
f 26//93 106//93 107//93 27//93
f 27//94 107//94 108//94 19//94
f 25//95 105//95 106//95 26//95
f 24//96 104//96 105//96 25//96
f 23//97 103//97 104//97 24//97
f 22//98 102//98 103//98 23//98
f 21//99 101//99 102//99 22//99
f 20//100 100//100 101//100 21//100
f 19//101 108//101 100//101 20//101
f 1//102 117//102 109//102 3//102
f 3//103 109//103 110//103 5//103
f 5//104 110//104 111//104 7//104
f 7//105 111//105 112//105 9//105
f 9//106 112//106 113//106 11//106
f 11//107 113//107 114//107 13//107
f 13//108 114//108 115//108 15//108
f 17//109 116//109 117//109 1//109
f 15//110 115//110 116//110 17//110
usemtl Bark
f 136//111 119//111 121//111 137//111
f 137//112 121//112 123//112 138//112
f 138//113 123//113 125//113 139//113
f 139//114 125//114 127//114 140//114
f 140//115 127//115 129//115 141//115
f 141//116 129//116 131//116 142//116
f 142//117 131//117 133//117 143//117
f 121//8 119//8 135//8 133//8 131//8 129//8 127//8 125//8 123//8
f 144//118 135//118 119//118 136//118
f 143//119 133//119 135//119 144//119
f 118//120 120//120 122//120 124//120 126//120 128//120 130//120 132//120 134//120
f 132//121 143//121 144//121 134//121
f 134//122 144//122 136//122 118//122
f 130//123 142//123 143//123 132//123
f 128//124 141//124 142//124 130//124
f 126//125 140//125 141//125 128//125
f 124//126 139//126 140//126 126//126
f 122//127 138//127 139//127 124//127
f 120//128 137//128 138//128 122//128
f 118//129 136//129 137//129 120//129
